Coordinates
version=1
nRows=14
nColumns=24
inDegrees=yes

Units are S.I. units (second, meters, Newtons, ...)
Angles are in degrees.

endheader
time	pelvis_tilt	pelvis_list	pelvis_rotation	pelvis_tx	pelvis_ty	pelvis_tz	hip_flexion_r	hip_adduction_r	hip_rotation_r	knee_angle_r	ankle_angle_r	subtalar_angle_r	mtp_angle_r	hip_flexion_l	hip_adduction_l	hip_rotation_l	knee_angle_l	ankle_angle_l	subtalar_angle_l	mtp_angle_l	lumbar_extension	lumbar_bending	lumbar_rotation
      0.78000000	     23.93098197	     -0.92533610	      2.05667483	     -0.62858371	      1.00872294	      0.12593875	     -3.82055560	      4.75860158	    -12.95807935	     -2.74226269	      2.09422426	     -4.50609737	     26.93509956	    -40.75439347	      0.53730164	     -4.41787359	     -8.38219820	     16.89554291	      9.28501171	     12.50207511	    -43.64843615	      0.71750927	     -3.94657973
      0.78500000	     23.92899547	     -1.03396768	      2.22831146	     -0.62194024	      1.00790762	      0.12574169	     -3.66491574	      4.89284552	    -13.12473608	     -3.34284202	      1.83119659	     -4.79554470	     26.88612305	    -40.88037262	      0.28929673	     -4.39713024	     -8.89032720	     16.90173163	      9.42139824	     12.64123083	    -43.61808593	      0.98648597	     -3.90534377
      0.79000000	     23.93200534	     -1.13151629	      2.33598856	     -0.61533024	      1.00715605	      0.12567125	     -3.50375878	      5.00737944	    -13.09474761	     -4.01087108	      1.43914628	     -5.36598486	     27.09111803	    -40.98032400	      0.08487928	     -4.45088256	     -9.42110186	     16.38396201	      9.40969728	     17.32580251	    -43.59961357	      1.20014119	     -3.83286116
      0.79500000	     23.95851428	     -1.26310745	      2.49875411	     -0.60867720	      1.00649097	      0.12551368	     -3.36651521	      5.15083563	    -13.13232208	     -4.73589713	      1.02495367	     -5.87663525	     27.04144676	    -41.06224709	     -0.19012988	     -4.48072998	    -10.05894038	     16.34900666	      9.61875558	     17.50760096	    -43.60355503	      1.48414033	     -3.78695049
      0.80000000	     23.95882239	     -1.43393477	      2.59644923	     -0.60195987	      1.00585498	      0.12545097	     -3.18300074	      5.32284775	    -13.04308798	     -5.53751905	      0.55991903	     -6.52962628	     27.63015223	    -41.10590012	     -0.45589076	     -4.57629218	    -10.69011574	     15.84641080	      9.59590381	     21.26383235	    -43.57578511	      1.75815567	     -3.63941388
      0.80500000	     23.94394190	     -1.57022724	      2.70925251	     -0.59531872	      1.00530093	      0.12538822	     -2.96731264	      5.45035442	    -12.94027896	     -6.40154511	      0.07687358	     -7.19569820	     27.54972580	    -41.06200570	     -0.71015332	     -4.60906956	    -11.45995476	     15.69572397	      9.76843959	     21.50755275	    -43.54517805	      2.01147731	     -3.56312288
      0.81000000	     23.95554798	     -1.78395341	      2.79492945	     -0.58855478	      1.00483467	      0.12535839	     -2.79232661	      5.65816565	    -12.76582536	     -7.27957706	     -0.37243806	     -7.89410112	     27.84578363	    -41.03822062	     -1.01476969	     -4.74314872	    -12.22017068	     15.03314738	      9.69183094	     25.87370327	    -43.53159933	      2.31827624	     -3.37429760
      0.81500000	     23.91246439	     -1.94115444	      2.84971677	     -0.58190913	      1.00440968	      0.12541903	     -2.52912583	      5.79846822	    -12.51577238	     -8.23216015	     -0.81865559	     -8.64659726	     27.75206061	    -40.87578035	     -1.26223983	     -4.81504398	    -13.13561270	     14.72451516	      9.86540594	     26.23296024	    -43.47981426	      2.54757773	     -3.23542601
      0.82000000	     23.93736246	     -2.17607264	      2.93304321	     -0.57512126	      1.00413600	      0.12543178	     -2.37027813	      6.02802010	    -12.28918141	     -9.16416769	     -1.17859504	     -9.32319604	     27.71115625	    -40.76886614	     -1.59757301	     -4.96351813	    -14.04341979	     13.90715782	      9.71951141	     31.16916270	    -43.48397401	      2.86937096	     -3.05463978
      0.82500000	     23.90948988	     -2.36900856	      2.96656370	     -0.56842158	      1.00390145	      0.12556468	     -2.13466176	      6.20951056	    -11.99088081	    -10.14817925	     -1.51971434	    -10.01035728	     27.46862196	    -40.53245667	     -1.87897723	     -5.09063710	    -15.07909796	     13.20348028	      9.75684340	     33.99244424	    -43.44993553	      3.11492265	     -2.87861869
      0.83000000	     23.89705222	     -2.60614262	      2.99870341	     -0.56164096	      1.00374326	      0.12573339	     -1.93297866	      6.44960499	    -11.65336175	    -11.13050143	     -1.70690382	    -10.70008335	     27.10722958	    -40.26604626	     -2.20804199	     -5.27590288	    -16.19726485	     12.46283316	      9.73590603	     36.86880919	    -43.42381167	      3.39592219	     -2.67598566
      0.83500000	     23.86267116	     -2.80723169	      3.01000994	     -0.55490646	      1.00367261	      0.12596342	     -1.70645629	      6.64926606	    -11.33361055	    -12.13373190	     -1.83911674	    -11.24942168	     26.55270052	    -39.91200956	     -2.50691619	     -5.43346397	    -17.39731893	     11.54047734	      9.74426071	     40.21048950	    -43.38448183	      3.62778259	     -2.48405792
      0.84000000	     23.80778553	     -3.01442576	      2.97018616	     -0.54819553	      1.00359993	      0.12629796	     -1.45601729	      6.86034216	    -10.96362915	    -13.15589053	     -1.87407604	    -11.80165655	     26.42430912	    -39.46585508	     -2.79470307	     -5.65139141	    -18.74491695	     10.86001735	      9.92717431	     40.63721069	    -43.33176370	      3.82777267	     -2.26631932
      0.84500000	     23.85610083	     -3.26804545	      3.00536691	     -0.54135699	      1.00376787	      0.12659561	     -1.40549918	      7.15301148	    -10.64325353	    -14.03630044	     -1.79066357	    -12.22988559	     25.13995247	    -39.10471226	     -3.18563342	     -5.86046558	    -20.04857587	      9.48512473	      9.69938333	     46.67197897	    -43.37011619	      4.11075625	     -2.06463700
